<svg width="157" height="29" viewBox="0 0 157 29" fill="none" xmlns="http://www.w3.org/2000/svg">
<path d="M3.45506 0.289881C3.824 0.289881 4.20612 0.395293 4.60141 0.606117C5.02306 0.790587 5.33929 1.04094 5.55012 1.35718L15.1558 16.1412L13.1793 16.0621L23.0221 1.35718C23.5228 0.645646 24.1685 0.289881 24.9591 0.289881C25.5915 0.289881 26.1581 0.513882 26.6588 0.961882C27.1595 1.40988 27.4099 1.98965 27.4099 2.70117V25.5887C27.4099 26.2739 27.1859 26.8536 26.7379 27.328C26.2899 27.776 25.6969 28 24.9591 28C24.2212 28 23.6151 27.776 23.1407 27.328C22.6927 26.8536 22.4687 26.2739 22.4687 25.5887V6.97035L24.0104 7.32612L15.9464 19.6198C15.7092 19.9096 15.4061 20.16 15.0372 20.3708C14.6946 20.5816 14.3388 20.6739 13.9699 20.6475C13.6273 20.6739 13.2715 20.5816 12.9026 20.3708C12.56 20.16 12.2701 19.9096 12.0329 19.6198L4.48282 7.68188L5.51059 5.58682V25.5887C5.51059 26.2739 5.29977 26.8536 4.87812 27.328C4.45647 27.776 3.90306 28 3.21788 28C2.55906 28 2.01882 27.776 1.59718 27.328C1.17553 26.8536 0.964706 26.2739 0.964706 25.5887V2.70117C0.964706 2.04235 1.20188 1.47576 1.67624 1.00141C2.17694 0.527058 2.76988 0.289881 3.45506 0.289881ZM42.9187 28.3953C40.6787 28.3953 38.7286 27.9341 37.0683 27.0118C35.4345 26.0631 34.1695 24.7849 33.2735 23.1774C32.4039 21.5699 31.969 19.7515 31.969 17.7224C31.969 15.3506 32.4434 13.3346 33.3921 11.6744C34.3672 9.98776 35.6321 8.69647 37.1869 7.80047C38.7417 6.90447 40.3888 6.45647 42.1281 6.45647C43.4721 6.45647 44.737 6.73318 45.9229 7.28659C47.1352 7.84 48.2025 8.60423 49.1248 9.57929C50.0472 10.528 50.7719 11.6348 51.2989 12.8998C51.8523 14.1647 52.129 15.5087 52.129 16.9318C52.1027 17.5642 51.8523 18.0781 51.378 18.4734C50.9036 18.8687 50.3502 19.0664 49.7177 19.0664H34.6175L33.4316 15.1134H47.9389L47.0693 15.904V14.8367C47.0166 14.0725 46.7399 13.3873 46.2392 12.7812C45.7648 12.1751 45.1587 11.7007 44.4208 11.3581C43.7093 10.9892 42.945 10.8047 42.1281 10.8047C41.3375 10.8047 40.5996 10.9101 39.9145 11.1209C39.2293 11.3318 38.6363 11.6875 38.1356 12.1882C37.6349 12.6889 37.2396 13.3609 36.9497 14.2042C36.6599 15.0475 36.5149 16.1148 36.5149 17.4061C36.5149 18.8292 36.8048 20.0414 37.3846 21.0428C37.9907 22.0179 38.7549 22.7689 39.6773 23.296C40.626 23.7967 41.6274 24.0471 42.6815 24.0471C43.6566 24.0471 44.434 23.968 45.0137 23.8099C45.5935 23.6518 46.0547 23.4673 46.3973 23.2565C46.7662 23.0193 47.0956 22.8216 47.3855 22.6635C47.8599 22.4264 48.3079 22.3078 48.7295 22.3078C49.3093 22.3078 49.7836 22.5054 50.1526 22.9007C50.5479 23.296 50.7455 23.7572 50.7455 24.2842C50.7455 24.9958 50.3766 25.6414 49.6387 26.2212C48.9535 26.8009 47.9916 27.3148 46.753 27.7628C45.5145 28.1845 44.2363 28.3953 42.9187 28.3953ZM67.5789 6.45647C69.529 6.45647 71.0047 6.86494 72.0062 7.68188C73.0339 8.49882 73.7323 9.59247 74.1012 10.9628C74.4965 12.3068 74.6942 13.8089 74.6942 15.4692V25.5887C74.6942 26.2739 74.4702 26.8536 74.0222 27.328C73.5742 27.776 73.0076 28 72.3224 28C71.6372 28 71.0706 27.776 70.6226 27.328C70.1746 26.8536 69.9506 26.2739 69.9506 25.5887V15.4692C69.9506 14.5995 69.832 13.8221 69.5949 13.1369C69.384 12.4254 68.9887 11.8588 68.409 11.4372C67.8292 11.0155 66.9991 10.8047 65.9186 10.8047C64.8645 10.8047 63.9685 11.0155 63.2306 11.4372C62.5191 11.8588 61.9657 12.4254 61.5704 13.1369C61.2015 13.8221 61.017 14.5995 61.017 15.4692V25.5887C61.017 26.2739 60.793 26.8536 60.345 27.328C59.897 27.776 59.3304 28 58.6452 28C57.96 28 57.3935 27.776 56.9455 27.328C56.4975 26.8536 56.2735 26.2739 56.2735 25.5887V9.26306C56.2735 8.57788 56.4975 8.01129 56.9455 7.56329C57.3935 7.08894 57.96 6.85176 58.6452 6.85176C59.3304 6.85176 59.897 7.08894 60.345 7.56329C60.793 8.01129 61.017 8.57788 61.017 9.26306V10.9628L60.424 10.8442C60.6612 10.3962 61.0038 9.92188 61.4518 9.42118C61.8998 8.89412 62.4269 8.40659 63.033 7.95859C63.6391 7.51059 64.3243 7.15482 65.0885 6.89129C65.8527 6.60141 66.6829 6.45647 67.5789 6.45647ZM80.0584 7.24706H89.4269C90.0594 7.24706 90.5864 7.45788 91.0081 7.87953C91.4297 8.30118 91.6405 8.82823 91.6405 9.46071C91.6405 10.0668 91.4297 10.5807 91.0081 11.0024C90.5864 11.3976 90.0594 11.5953 89.4269 11.5953H80.0584C79.426 11.5953 78.8989 11.3845 78.4773 10.9628C78.0556 10.5412 77.8448 10.0141 77.8448 9.38165C77.8448 8.77553 78.0556 8.27482 78.4773 7.87953C78.8989 7.45788 79.426 7.24706 80.0584 7.24706ZM84.2881 2.30588C84.9733 2.30588 85.5267 2.54306 85.9483 3.01741C86.3963 3.46541 86.6203 4.032 86.6203 4.71717V22.3078C86.6203 22.6767 86.6862 22.9798 86.818 23.2169C86.9761 23.4541 87.1737 23.6254 87.4109 23.7308C87.6744 23.8362 87.9511 23.8889 88.241 23.8889C88.5573 23.8889 88.8471 23.8362 89.1107 23.7308C89.3742 23.5991 89.6773 23.5332 90.0198 23.5332C90.3888 23.5332 90.7182 23.7045 91.0081 24.0471C91.3243 24.3896 91.4824 24.864 91.4824 25.4701C91.4824 26.208 91.074 26.8141 90.257 27.2885C89.4664 27.7628 88.61 28 87.6876 28C87.1342 28 86.5149 27.9605 85.8297 27.8814C85.1709 27.776 84.5384 27.552 83.9323 27.2094C83.3525 26.8405 82.865 26.2871 82.4697 25.5492C82.0744 24.8113 81.8768 23.7967 81.8768 22.5054V4.71717C81.8768 4.032 82.1008 3.46541 82.5488 3.01741C83.0231 2.54306 83.6029 2.30588 84.2881 2.30588ZM116.319 17.4456C116.319 19.6066 115.831 21.5172 114.856 23.1774C113.907 24.8113 112.616 26.0894 110.982 27.0118C109.375 27.9341 107.569 28.3953 105.567 28.3953C103.564 28.3953 101.745 27.9341 100.112 27.0118C98.504 26.0894 97.2127 24.8113 96.2377 23.1774C95.289 21.5172 94.8146 19.6066 94.8146 17.4456C94.8146 15.2847 95.289 13.3873 96.2377 11.7534C97.2127 10.0932 98.504 8.80188 100.112 7.87953C101.745 6.93082 103.564 6.45647 105.567 6.45647C107.569 6.45647 109.375 6.93082 110.982 7.87953C112.616 8.80188 113.907 10.0932 114.856 11.7534C115.831 13.3873 116.319 15.2847 116.319 17.4456ZM111.575 17.4456C111.575 16.1016 111.298 14.9421 110.745 13.9671C110.218 12.9656 109.493 12.1882 108.571 11.6348C107.675 11.0814 106.673 10.8047 105.567 10.8047C104.46 10.8047 103.445 11.0814 102.523 11.6348C101.627 12.1882 100.902 12.9656 100.349 13.9671C99.8217 14.9421 99.5582 16.1016 99.5582 17.4456C99.5582 18.7633 99.8217 19.9228 100.349 20.9242C100.902 21.8993 101.627 22.6635 102.523 23.2169C103.445 23.7704 104.46 24.0471 105.567 24.0471C106.673 24.0471 107.675 23.7704 108.571 23.2169C109.493 22.6635 110.218 21.8993 110.745 20.9242C111.298 19.9228 111.575 18.7633 111.575 17.4456ZM122.842 28C122.157 28 121.59 27.776 121.142 27.328C120.694 26.8536 120.47 26.2739 120.47 25.5887V9.26306C120.47 8.57788 120.694 8.01129 121.142 7.56329C121.59 7.08894 122.157 6.85176 122.842 6.85176C123.527 6.85176 124.094 7.08894 124.542 7.56329C124.99 8.01129 125.214 8.57788 125.214 9.26306V12.9788L124.937 10.3304C125.227 9.69788 125.596 9.14447 126.044 8.67012C126.518 8.16941 127.045 7.76094 127.625 7.4447C128.205 7.10212 128.824 6.85176 129.483 6.69365C130.142 6.53553 130.8 6.45647 131.459 6.45647C132.25 6.45647 132.909 6.68047 133.436 7.12847C133.989 7.57647 134.266 8.10353 134.266 8.70965C134.266 9.57929 134.042 10.2118 133.594 10.6071C133.146 10.976 132.658 11.1605 132.131 11.1605C131.631 11.1605 131.169 11.0682 130.748 10.8838C130.352 10.6993 129.891 10.6071 129.364 10.6071C128.89 10.6071 128.402 10.7256 127.902 10.9628C127.427 11.1736 126.979 11.5162 126.558 11.9906C126.162 12.4649 125.833 13.0579 125.569 13.7694C125.332 14.4546 125.214 15.2715 125.214 16.2202V25.5887C125.214 26.2739 124.99 26.8536 124.542 27.328C124.094 27.776 123.527 28 122.842 28ZM154.461 6.45647C155.146 6.45647 155.712 6.68047 156.16 7.12847C156.608 7.57647 156.832 8.15623 156.832 8.86776V25.5887C156.832 26.2739 156.608 26.8536 156.16 27.328C155.712 27.776 155.146 28 154.461 28C153.775 28 153.209 27.776 152.761 27.328C152.313 26.8536 152.089 26.2739 152.089 25.5887V23.6518L152.958 24.0075C152.958 24.3501 152.774 24.7718 152.405 25.2725C152.036 25.7468 151.535 26.2212 150.903 26.6955C150.27 27.1699 149.519 27.5784 148.65 27.9209C147.806 28.2372 146.884 28.3953 145.883 28.3953C144.064 28.3953 142.417 27.9341 140.941 27.0118C139.466 26.0631 138.293 24.7718 137.423 23.1379C136.58 21.4776 136.158 19.5802 136.158 17.4456C136.158 15.2847 136.58 13.3873 137.423 11.7534C138.293 10.0932 139.453 8.80188 140.902 7.87953C142.351 6.93082 143.959 6.45647 145.725 6.45647C146.858 6.45647 147.899 6.62776 148.847 6.97035C149.796 7.31294 150.613 7.74776 151.298 8.27482C152.01 8.80188 152.55 9.34212 152.919 9.89553C153.314 10.4226 153.512 10.8706 153.512 11.2395L152.089 11.7534V8.86776C152.089 8.18259 152.313 7.616 152.761 7.168C153.209 6.69365 153.775 6.45647 154.461 6.45647ZM146.476 24.0471C147.635 24.0471 148.65 23.7572 149.519 23.1774C150.389 22.5976 151.061 21.8071 151.535 20.8056C152.036 19.8042 152.286 18.6842 152.286 17.4456C152.286 16.1807 152.036 15.0475 151.535 14.0461C151.061 13.0447 150.389 12.2541 149.519 11.6744C148.65 11.0946 147.635 10.8047 146.476 10.8047C145.342 10.8047 144.341 11.0946 143.471 11.6744C142.602 12.2541 141.917 13.0447 141.416 14.0461C140.941 15.0475 140.704 16.1807 140.704 17.4456C140.704 18.6842 140.941 19.8042 141.416 20.8056C141.917 21.8071 142.602 22.5976 143.471 23.1774C144.341 23.7572 145.342 24.0471 146.476 24.0471Z" fill="#435EBE"/>
</svg>
